# xmcd CD database generated by RipIT
#
# Track frame offsets:
# 150
# 20919
# 40917
# 58099
# 77177
# 96034
# 113704
# 130033
# 154115
# 169423
# 185184
#
# Disc length: 2750 seconds
#
# Revision: 0
# Processed by: cddbd v1.5.2PL0 Copyright (c) Steve Scherf et al.
# Submitted via: RipIT 3.9.0 www.suwald.com/ripit/ripit.html on 2016-03-22 at 10:29
#
DISCID=960abc0b
DTITLE=Delain - April Rain
DYEAR=1900
DGENRE=Progressive Rock
TTITLE0=April Rain
TTITLE1=Stay Forever
TTITLE2=Invidia
TTITLE3=Control the Storm
TTITLE4=On the Other Side
TTITLE5=Virtue and Vice
TTITLE6=Go Away
TTITLE7=Start Swimming
TTITLE8=Lost
TTITLE9=I'll Reach You
TTITLE10=Nothing Left
EXTD=
EXTT0=
EXTT1=
EXTT2=
EXTT3=
EXTT4=
EXTT5=
EXTT6=
EXTT7=
EXTT8=
EXTT9=
EXTT10=
PLAYORDER=
